<svg width="47" height="13" viewBox="0 0 47 13" fill="none" xmlns="http://www.w3.org/2000/svg">
<path d="M2.87013 4.416C2.78479 4.21333 2.69946 3.97867 2.61413 3.712C2.52879 3.43467 2.41679 3.088 2.27813 2.672V12.416H0.374125V0.879999H3.28613L6.11813 8.048L8.83813 0.879999H11.7821V12.416H9.84613V2.672C9.72879 3.152 9.62746 3.51467 9.54213 3.76C9.45679 3.99467 9.37679 4.21333 9.30213 4.416L6.88613 10.496H5.25413L2.87013 4.416ZM19.7501 7.216V6.832C19.7501 6.59733 19.7128 6.37333 19.6381 6.16C19.5741 5.94667 19.4621 5.76 19.3021 5.6C19.1421 5.44 18.9395 5.312 18.6941 5.216C18.4488 5.12 18.1501 5.072 17.7981 5.072C17.1261 5.072 16.6195 5.248 16.2781 5.6C15.9475 5.952 15.7821 6.37867 15.7821 6.88V7.216H19.7501ZM21.4621 11.6C21.0355 11.888 20.5341 12.1173 19.9581 12.288C19.3821 12.4587 18.6781 12.544 17.8461 12.544C17.3341 12.544 16.8381 12.4747 16.3581 12.336C15.8781 12.208 15.4461 11.9893 15.0621 11.68C14.6888 11.36 14.3848 10.9387 14.1501 10.416C13.9261 9.88267 13.8141 9.22133 13.8141 8.432V7.52C13.8141 6.80533 13.9155 6.192 14.1181 5.68C14.3315 5.15733 14.6195 4.73067 14.9821 4.4C15.3448 4.05867 15.7661 3.808 16.2461 3.648C16.7368 3.488 17.2648 3.408 17.8301 3.408C18.3848 3.408 18.8968 3.488 19.3661 3.648C19.8461 3.808 20.2568 4.05333 20.5981 4.384C20.9395 4.704 21.2061 5.10933 21.3981 5.6C21.5901 6.08 21.6861 6.64 21.6861 7.28V8.736H15.7821C15.7821 9.44 15.9688 9.97333 16.3421 10.336C16.7155 10.688 17.2541 10.864 17.9581 10.864C18.4808 10.864 18.9448 10.8107 19.3501 10.704C19.7555 10.5867 20.1821 10.4 20.6301 10.144L21.4621 11.6ZM33.0306 3.408C33.436 3.408 33.82 3.47733 34.1826 3.616C34.556 3.75467 34.8813 3.96267 35.1586 4.24C35.436 4.51733 35.6546 4.864 35.8146 5.28C35.9853 5.696 36.0706 6.18133 36.0706 6.736V12.416H34.0546V7.152C34.0546 6.75733 34.012 6.432 33.9266 6.176C33.8413 5.92 33.724 5.72267 33.5746 5.584C33.4253 5.43467 33.2546 5.33333 33.0626 5.28C32.8706 5.22667 32.668 5.2 32.4546 5.2C32.2626 5.2 32.0653 5.232 31.8626 5.296C31.6706 5.34933 31.5 5.45067 31.3506 5.6C31.2013 5.73867 31.0786 5.93067 30.9826 6.176C30.8866 6.42133 30.8386 6.72533 30.8386 7.088V12.416H28.8226V7.12C28.8226 6.74667 28.78 6.43733 28.6946 6.192C28.6093 5.94667 28.492 5.74933 28.3426 5.6C28.204 5.45067 28.0386 5.34933 27.8466 5.296C27.6546 5.232 27.4466 5.2 27.2226 5.2C26.7426 5.2 26.3533 5.34933 26.0546 5.648C25.756 5.94667 25.6066 6.4 25.6066 7.008V12.416H23.5906V3.6H25.4946V4.72H25.5266C25.74 4.31467 26.0493 3.99467 26.4546 3.76C26.8706 3.52533 27.3666 3.408 27.9426 3.408C28.4866 3.408 28.972 3.53067 29.3986 3.776C29.836 4.02133 30.1346 4.34667 30.2946 4.752C30.604 4.304 30.9666 3.968 31.3826 3.744C31.8093 3.52 32.3586 3.408 33.0306 3.408ZM42.0515 10.784C42.3502 10.784 42.6275 10.7413 42.8835 10.656C43.1395 10.5707 43.3582 10.4373 43.5395 10.256C43.7315 10.0747 43.8808 9.83467 43.9875 9.536C44.0942 9.23733 44.1475 8.88 44.1475 8.464V7.488C44.1475 6.64533 43.9555 6.048 43.5715 5.696C43.1982 5.344 42.6915 5.168 42.0515 5.168C41.4115 5.168 40.8995 5.344 40.5155 5.696C40.1422 6.048 39.9555 6.64533 39.9555 7.488V8.464C39.9555 8.88 40.0088 9.23733 40.1155 9.536C40.2222 9.83467 40.3662 10.0747 40.5475 10.256C40.7395 10.4373 40.9635 10.5707 41.2195 10.656C41.4755 10.7413 41.7528 10.784 42.0515 10.784ZM42.0515 12.544C41.4222 12.544 40.8515 12.4533 40.3395 12.272C39.8382 12.0907 39.4062 11.8293 39.0435 11.488C38.6915 11.1467 38.4142 10.7253 38.2115 10.224C38.0195 9.712 37.9235 9.136 37.9235 8.496V7.456C37.9235 6.80533 38.0195 6.22933 38.2115 5.728C38.4142 5.22667 38.6915 4.80533 39.0435 4.464C39.4062 4.12267 39.8382 3.86133 40.3395 3.68C40.8515 3.49867 41.4222 3.408 42.0515 3.408C42.6702 3.408 43.2355 3.49867 43.7475 3.68C44.2595 3.86133 44.6915 4.12267 45.0435 4.464C45.4062 4.80533 45.6835 5.22667 45.8755 5.728C46.0782 6.22933 46.1795 6.80533 46.1795 7.456V8.496C46.1795 9.136 46.0782 9.712 45.8755 10.224C45.6835 10.7253 45.4062 11.1467 45.0435 11.488C44.6915 11.8293 44.2595 12.0907 43.7475 12.272C43.2355 12.4533 42.6702 12.544 42.0515 12.544Z" fill="#92400E"/>
</svg>
